# xmcd CD database file
#
# Track frame offsets:
#	182
#	12197
#	31292
#	50082
#	69487
#	86557
#	101620
#	116462
#	132780
#	146325
#
# Disc length: 2147 seconds
#
# Revision: 2
# Processed by: cddbd v1.4PL0 Copyright (c) Steve Scherf et al.
# Submitted via: CDex 1.50Beta7
#
DISCID=7f08610a
DTITLE=Tanya Tucker - Can't Run From Yourself
DYEAR=1992
DGENRE=Country
TTITLE0=It's A Little Too Late
TTITLE1=Can't Run From Yourself
TTITLE2=Two Sparrows In A Hurricane
TTITLE3=Don't Let My Heart Be The Last To Know
TTITLE4=Tell Me About It
TTITLE5=I've Learned To Live
TTITLE6=What Do They Know
TTITLE7=Rainbow Rider
TTITLE8=Half The Moon
TTITLE9=Danger Ahead
EXTD=YEAR: 1992
EXTT0=
EXTT1=
EXTT2=
EXTT3=
EXTT4=
EXTT5=
EXTT6=
EXTT7=
EXTT8=
EXTT9=
PLAYORDER=
